<svg width="20" height="20" viewBox="0 0 20 20" fill="none" xmlns="http://www.w3.org/2000/svg">
<g opacity="0.6">
<path d="M18.3174 6.56606C18.2783 5.6805 18.1351 5.07168 17.93 4.54413C17.7183 3.98415 17.3927 3.4828 16.9662 3.06603C16.5494 2.64277 16.0447 2.31388 15.4913 2.10555C14.9607 1.90041 14.355 1.7572 13.4695 1.71816C12.5773 1.67581 12.294 1.66602 10.0312 1.66602C7.76843 1.66602 7.4852 1.67581 6.59633 1.71485C5.71076 1.7539 5.10195 1.89723 4.57453 2.10225C4.01442 2.31388 3.51307 2.63946 3.0963 3.06603C2.67304 3.4828 2.34428 3.98746 2.13583 4.54095C1.93068 5.07168 1.78748 5.67719 1.74843 6.56275C1.70608 7.45493 1.69629 7.73816 1.69629 10.001C1.69629 12.2638 1.70608 12.547 1.74513 13.4359C1.78417 14.3215 1.9275 14.9303 2.13265 15.4578C2.34428 16.0178 2.67304 16.5191 3.0963 16.9359C3.51307 17.3592 4.01773 17.6881 4.57122 17.8964C5.10195 18.1015 5.70746 18.2447 6.59315 18.2838C7.48189 18.323 7.76525 18.3326 10.0281 18.3326C12.2909 18.3326 12.5741 18.323 13.463 18.2838C14.3485 18.2447 14.9573 18.1015 15.4848 17.8964C16.6049 17.4633 17.4904 16.5778 17.9235 15.4578C18.1285 14.9271 18.2718 14.3215 18.3109 13.4359C18.3499 12.547 18.3597 12.2638 18.3597 10.001C18.3597 7.73816 18.3564 7.45493 18.3174 6.56606ZM16.8165 13.3708C16.7806 14.1847 16.6439 14.6243 16.5299 14.9173C16.2499 15.6434 15.6736 16.2196 14.9476 16.4997C14.6545 16.6136 14.2118 16.7504 13.401 16.7861C12.522 16.8253 12.2583 16.8349 10.0345 16.8349C7.81078 16.8349 7.54383 16.8253 6.66793 16.7861C5.85397 16.7504 5.41443 16.6136 5.12141 16.4997C4.76009 16.3661 4.43119 16.1545 4.16424 15.8778C3.88749 15.6075 3.67586 15.2819 3.54232 14.9206C3.42837 14.6276 3.29165 14.1847 3.25591 13.3741C3.21674 12.495 3.20707 12.2312 3.20707 10.0075C3.20707 7.7837 3.21674 7.51674 3.25591 6.64097C3.29165 5.82701 3.42837 5.38747 3.54232 5.09444C3.67586 4.733 3.88749 4.40423 4.16755 4.13715C4.43768 3.8604 4.76326 3.64877 5.12471 3.51536C5.41774 3.40141 5.86058 3.26469 6.67124 3.22882C7.55031 3.18978 7.81409 3.17998 10.0377 3.17998C12.2648 3.17998 12.5284 3.18978 13.4043 3.22882C14.2183 3.26469 14.6578 3.40141 14.9509 3.51536C15.3122 3.64877 15.6411 3.8604 15.908 4.13715C16.1848 4.40741 16.3964 4.733 16.5299 5.09444C16.6439 5.38747 16.7806 5.83019 16.8165 6.64097C16.8555 7.52005 16.8653 7.7837 16.8653 10.0075C16.8653 12.2312 16.8555 12.4917 16.8165 13.3708Z" fill="white"/>
<path d="M10.0312 5.71954C7.66757 5.71954 5.7498 7.63719 5.7498 10.001C5.7498 12.3648 7.66757 14.2824 10.0312 14.2824C12.395 14.2824 14.3127 12.3648 14.3127 10.001C14.3127 7.63719 12.395 5.71954 10.0312 5.71954ZM10.0312 12.7782C8.49781 12.7782 7.25398 11.5345 7.25398 10.001C7.25398 8.46743 8.49781 7.22372 10.0312 7.22372C11.5648 7.22372 12.8085 8.46743 12.8085 10.001C12.8085 11.5345 11.5648 12.7782 10.0312 12.7782Z" fill="white"/>
<path d="M15.4816 5.55027C15.4816 6.10223 15.0341 6.54979 14.482 6.54979C13.93 6.54979 13.4825 6.10223 13.4825 5.55027C13.4825 4.99817 13.93 4.55074 14.482 4.55074C15.0341 4.55074 15.4816 4.99817 15.4816 5.55027Z" fill="white"/>
</g>
</svg>
