<svg width="20" height="20" viewBox="0 0 20 20" fill="none" xmlns="http://www.w3.org/2000/svg">
<path d="M18.3295 18.3327L18.3337 18.332V12.2195C18.3337 9.22921 17.6899 6.92574 14.1941 6.92574C12.5135 6.92574 11.3857 7.84796 10.9253 8.72227H10.8767V7.2049H7.56212V18.332H11.0135V12.8223C11.0135 11.3716 11.2885 9.9688 13.085 9.9688C14.8552 9.9688 14.8816 11.6244 14.8816 12.9153V18.3327H18.3295Z" fill="white"/>
<path d="M1.94199 7.2056H5.39754V18.3327H1.94199V7.2056Z" fill="white"/>
<path d="M3.66838 1.66602C2.56352 1.66602 1.66699 2.56254 1.66699 3.6674C1.66699 4.77227 2.56352 5.68754 3.66838 5.68754C4.77324 5.68754 5.66977 4.77227 5.66977 3.6674C5.66908 2.56254 4.77255 1.66602 3.66838 1.66602Z" fill="white"/>
</svg>
