<svg width="16" height="17" viewBox="0 0 16 17" fill="none" xmlns="http://www.w3.org/2000/svg">
<path fill-rule="evenodd" clip-rule="evenodd" d="M10.7122 7.44002C11.4104 7.97368 11.4104 9.02507 10.7122 9.55873L7.65889 11.8924C6.7815 12.5629 5.5159 11.9373 5.5159 10.833V6.16575C5.5159 5.06144 6.7815 4.43581 7.65889 5.1064L10.7122 7.44002ZM9.90252 8.49938L6.84923 6.16575L6.84923 10.833L9.90252 8.49938Z" fill="#424551"/>
<path fill-rule="evenodd" clip-rule="evenodd" d="M8.00033 2.49935C4.68662 2.49935 2.00033 5.18564 2.00033 8.49935C2.00033 11.8131 4.68662 14.4993 8.00033 14.4993C11.314 14.4993 14.0003 11.8131 14.0003 8.49935C14.0003 5.18564 11.314 2.49935 8.00033 2.49935ZM0.666992 8.49935C0.666992 4.44926 3.95024 1.16602 8.00033 1.16602C12.0504 1.16602 15.3337 4.44926 15.3337 8.49935C15.3337 12.5494 12.0504 15.8327 8.00033 15.8327C3.95024 15.8327 0.666992 12.5494 0.666992 8.49935Z" fill="#424551"/>
</svg>
