<svg width="20" height="20" viewBox="0 0 20 20" fill="none" xmlns="http://www.w3.org/2000/svg">
<path fill-rule="evenodd" clip-rule="evenodd" d="M10.0002 2.70817C8.38937 2.70817 7.08353 4.01401 7.08353 5.62484C7.08353 7.23567 8.38937 8.5415 10.0002 8.5415C11.611 8.5415 12.9169 7.23567 12.9169 5.62484C12.9169 4.01401 11.611 2.70817 10.0002 2.70817ZM5.41686 5.62484C5.41686 3.09353 7.46889 1.0415 10.0002 1.0415C12.5315 1.0415 14.5835 3.09353 14.5835 5.62484C14.5835 8.15614 12.5315 10.2082 10.0002 10.2082C7.46889 10.2082 5.41686 8.15614 5.41686 5.62484Z" fill="#424551"/>
<path fill-rule="evenodd" clip-rule="evenodd" d="M5.08691 12.7082C4.50914 12.7082 4.05756 12.9895 3.87424 13.3937C3.62053 13.9531 3.39078 14.6192 3.33656 15.2508C3.31233 15.5332 3.43007 15.7413 3.5923 15.8421C4.44993 16.3748 6.43719 17.2915 10.0002 17.2915C13.5632 17.2915 15.5505 16.3748 16.4081 15.8421C16.5703 15.7413 16.6881 15.5332 16.6638 15.2508C16.6096 14.6192 16.3799 13.9531 16.1261 13.3937C15.9428 12.9895 15.4912 12.7082 14.9135 12.7082H5.08691ZM2.35639 12.7053C2.86301 11.5882 3.99429 11.0415 5.08691 11.0415H14.9135C16.0061 11.0415 17.1374 11.5882 17.644 12.7053C17.935 13.3469 18.2472 14.2094 18.3244 15.1083C18.3946 15.9268 18.0544 16.7814 17.2876 17.2578C16.1596 17.9585 13.8665 18.9582 10.0002 18.9582C6.13386 18.9582 3.84078 17.9585 2.71283 17.2578C1.94595 16.7814 1.60575 15.9268 1.676 15.1083C1.75315 14.2094 2.0654 13.3469 2.35639 12.7053Z" fill="#424551"/>
</svg>
