<svg width="48" height="48" viewBox="0 0 48 48" fill="none" xmlns="http://www.w3.org/2000/svg">
<g clip-path="url(#clip0_1002_394)">
<path d="M33.2986 37C32.9801 36.6692 32.3923 36.5744 31.9602 36.9878C31.9572 36.9907 31.9541 36.9937 31.951 36.9967C31.5246 37.416 31.6017 38.0065 31.9226 38.335C32.093 38.5095 32.3389 38.6171 32.5965 38.6171C32.8238 38.6171 33.06 38.5333 33.2612 38.3381C33.6905 37.9217 33.6175 37.3306 33.2986 37Z" fill="#FF3F3A"/>
<path d="M41.7862 18.9524C41.6062 18.4668 41.0671 18.2192 40.5816 18.3989C40.0961 18.5787 39.8483 19.1179 40.0282 19.6035C40.8374 21.7882 41.2477 24.0885 41.2477 26.4404C41.2477 37.2945 32.4171 46.125 21.563 46.125C17.5353 46.125 13.6636 44.9173 10.3659 42.6325C9.94056 42.3376 9.35641 42.4435 9.06156 42.8691C8.76663 43.2946 8.87256 43.8786 9.29819 44.1734C12.9109 46.6767 17.152 47.9997 21.5631 47.9997C27.3219 47.9997 32.7358 45.7572 36.8079 41.685C40.88 37.613 43.1226 32.199 43.1226 26.4403C43.1224 23.8655 42.6727 21.3462 41.7862 18.9524Z" fill="#FF3F3A"/>
<path d="M28.8232 6.13353C26.4975 5.30196 24.055 4.88037 21.5634 4.88037C15.8046 4.88037 10.3906 7.12296 6.31852 11.1949C2.2465 15.2671 0.00390625 20.6812 0.00390625 26.4398C0.00390625 30.9056 1.35728 35.1902 3.91796 38.8303C4.1004 39.0898 4.39055 39.2284 4.68549 39.2284C4.87177 39.2284 5.05993 39.173 5.2239 39.0576C5.64736 38.7597 5.74918 38.175 5.45133 37.7516C3.11406 34.4289 1.87862 30.5174 1.87862 26.4397C1.87862 15.5856 10.7092 6.75509 21.5633 6.75509C23.8393 6.75509 26.0694 7.13984 28.1919 7.89874C28.6793 8.07312 29.2159 7.81924 29.3901 7.33174C29.5644 6.84434 29.3106 6.3079 28.8232 6.13353Z" fill="#FF3F3A"/>
<path d="M47.9246 7.77427C47.7795 7.42393 47.4378 7.19565 47.0586 7.19565H42.1332L42.6629 6.66596C43.0289 6.29997 43.0289 5.70634 42.6629 5.34025C42.2968 4.97425 41.7034 4.97425 41.3372 5.34025L40.8008 5.87669V0.937944C40.8008 0.558914 40.5723 0.217008 40.2221 0.0718837C39.8718 -0.073241 39.4686 0.00700879 39.2006 0.27504L30.9372 8.53852C30.7614 8.7143 30.6626 8.95271 30.6626 9.20133V12.453C27.9587 10.6844 24.8416 9.75587 21.5621 9.75587C12.3619 9.75587 4.87695 17.2409 4.87695 26.441C4.87695 35.6411 12.3619 43.1261 21.5621 43.1261C24.6157 43.1261 27.6031 42.2933 30.2014 40.718C30.6441 40.4496 30.7853 39.8731 30.517 39.4304C30.2487 38.9878 29.6722 38.8463 29.2295 39.1148C26.9243 40.5126 24.2729 41.2513 21.5621 41.2513C13.3956 41.2513 6.75167 34.6074 6.75167 26.4409C6.75167 18.2743 13.3956 11.6305 21.5621 11.6305C24.8968 11.6305 28.0419 12.7113 30.6626 14.7561V16.0147L28.9543 17.7229C26.9594 16.0288 24.3783 15.0049 21.5621 15.0049C15.2563 15.0049 10.1262 20.135 10.1262 26.4408C10.1262 32.7466 15.2563 37.8767 21.5621 37.8767C27.8679 37.8767 32.998 32.7466 32.998 26.4408C32.998 23.6247 31.9742 21.0435 30.28 19.0485L31.9949 17.3336H33.242C35.2628 19.9234 36.3724 23.1451 36.3724 26.4408C36.3724 29.2043 35.6065 31.8997 34.1577 34.2354C33.8848 34.6753 34.0203 35.2532 34.4604 35.5261C34.6142 35.6215 34.7848 35.667 34.9535 35.667C35.2672 35.667 35.5736 35.5096 35.751 35.2237C37.3841 32.5909 38.2472 29.5539 38.2472 26.4408C38.2472 23.203 37.2961 20.0283 35.5426 17.3336H38.7949C39.0435 17.3336 39.2818 17.2348 39.4577 17.059L47.7212 8.79549C47.9895 8.52774 48.0697 8.12452 47.9246 7.77427ZM31.1234 26.441C31.1234 31.713 26.8343 36.0022 21.5623 36.0022C16.2902 36.0022 12.0011 31.713 12.0011 26.441C12.0011 21.169 16.2902 16.8798 21.5623 16.8798C23.8615 16.8798 25.9735 17.6957 27.6246 19.053L25.4897 21.1879C24.3941 20.3666 23.034 19.8794 21.5624 19.8794C17.9443 19.8794 15.0008 22.823 15.0008 26.441C15.0008 30.0591 17.9444 33.0025 21.5624 33.0025C25.1804 33.0025 28.1239 30.059 28.1239 26.441C28.1239 24.9693 27.6368 23.6093 26.8154 22.5135L28.9503 20.3787C30.3075 22.0298 31.1234 24.1418 31.1234 26.441ZM20.8995 27.1039C21.0825 27.287 21.3224 27.3785 21.5623 27.3785C21.8022 27.3785 22.042 27.287 22.2251 27.1039L25.4706 23.8584C25.9619 24.5995 26.2491 25.4872 26.2491 26.441C26.2491 29.0253 24.1466 31.1278 21.5623 31.1278C18.978 31.1278 16.8754 29.0253 16.8754 26.441C16.8754 23.8567 18.978 21.7542 21.5623 21.7542C22.5162 21.7542 23.4038 22.0413 24.145 22.5327L20.8995 25.7782C20.5334 26.1442 20.5334 26.7377 20.8995 27.1039ZM32.5375 14.1401V9.58965L38.9261 3.20097V7.7514L32.5375 14.1401ZM38.4069 15.459H33.8699L40.2586 9.07037H44.7955L38.4069 15.459Z" fill="#FF3F3A"/>
<path d="M7.62444 40.3401C7.45016 40.1658 7.20838 40.0654 6.96182 40.0654C6.71423 40.0654 6.47244 40.1657 6.2991 40.3401C6.12379 40.5145 6.02441 40.7563 6.02441 41.0028C6.02441 41.2494 6.12379 41.4912 6.2991 41.6656C6.47338 41.8399 6.71432 41.9402 6.96182 41.9402C7.20838 41.9402 7.45016 41.8399 7.62444 41.6656C7.79882 41.4912 7.89922 41.2494 7.89922 41.0028C7.89922 40.7563 7.79891 40.5154 7.62444 40.3401Z" fill="#FF3F3A"/>
</g>
<defs>
<clipPath id="clip0_1002_394">
<rect width="48" height="48" fill="white"/>
</clipPath>
</defs>
</svg>
