<svg width="48" height="48" viewBox="0 0 48 48" fill="none" xmlns="http://www.w3.org/2000/svg">
<g clip-path="url(#clip0_1002_377)">
<path d="M32.8015 23.6188C32.6273 23.4445 32.3856 23.3442 32.1392 23.3442C31.8928 23.3442 31.651 23.4444 31.4767 23.6188C31.3025 23.7932 31.2021 24.0349 31.2021 24.2813C31.2021 24.5277 31.3023 24.7694 31.4767 24.9436C31.651 25.1179 31.8928 25.2183 32.1392 25.2183C32.3856 25.2183 32.6264 25.1181 32.8015 24.9436C32.9758 24.7694 33.0762 24.5277 33.0762 24.2813C33.0762 24.0349 32.9759 23.7931 32.8015 23.6188Z" fill="#FF3F3A"/>
<path d="M38.9807 2.5415H8.9955C8.47809 2.5415 8.05847 2.96113 8.05847 3.47854V18.4711C8.05847 18.9885 8.47809 19.4082 8.9955 19.4082H23.0511V23.3437H7.04353C6.52612 23.3437 6.1065 23.7633 6.1065 24.2807V31.5896H0.937031C0.419625 31.5896 0 32.0092 0 32.5266V44.5207C0 45.0381 0.419625 45.4577 0.937031 45.4577H12.9311C13.4485 45.4577 13.8682 45.0381 13.8682 44.5207V32.5266C13.8682 32.0092 13.4485 31.5896 12.9311 31.5896H7.98056V25.2178H23.0511V31.5896H18.003C17.4856 31.5896 17.066 32.0092 17.066 32.5266V44.5207C17.066 45.0381 17.4856 45.4577 18.003 45.4577H29.9971C30.5145 45.4577 30.9341 45.0381 30.9341 44.5207V32.5266C30.9341 32.0091 30.5145 31.5896 29.9971 31.5896H24.9252V25.2178H28.6733C29.1908 25.2178 29.6104 24.7981 29.6104 24.2807C29.6104 23.7633 29.1908 23.3437 28.6733 23.3437H24.9252V19.4082H38.9808C39.4982 19.4082 39.9178 18.9885 39.9178 18.4711V3.47854C39.9177 2.96104 39.4981 2.5415 38.9807 2.5415ZM11.9941 33.4636V43.5836H1.87406V33.4636H11.9941ZM29.06 33.4636V43.5836H18.94V33.4636H29.06ZM38.0437 17.534H9.93253V8.16369H16.2803C16.7978 8.16369 17.2174 7.74407 17.2174 7.22666C17.2174 6.70925 16.7978 6.28963 16.2803 6.28963H9.93253V4.41557H38.0436V17.534H38.0437Z" fill="#FF3F3A"/>
<path d="M47.0639 31.5901H41.8707V24.2813C41.8707 23.7639 41.451 23.3442 40.9336 23.3442H35.7957C35.2782 23.3442 34.8586 23.7639 34.8586 24.2813C34.8586 24.7987 35.2782 25.2183 35.7957 25.2183H39.9966V31.5901H35.0698C34.5524 31.5901 34.1328 32.0097 34.1328 32.5271V44.5212C34.1328 45.0386 34.5524 45.4583 35.0698 45.4583H47.0639C47.5813 45.4583 48.001 45.0386 48.001 44.5212V32.5271C48.001 32.0096 47.5813 31.5901 47.0639 31.5901ZM46.1269 43.5841H36.0069V33.4642H46.1269V43.5841Z" fill="#FF3F3A"/>
<path d="M20.8847 6.56463C20.7103 6.39035 20.4686 6.29004 20.2223 6.29004C19.9749 6.29004 19.7341 6.39016 19.5588 6.56463C19.3846 6.73891 19.2852 6.98069 19.2852 7.22707C19.2852 7.47354 19.3845 7.71523 19.5588 7.88941C19.734 8.0637 19.9758 8.1641 20.2223 8.1641C20.4688 8.1641 20.7095 8.06388 20.8847 7.88941C21.059 7.71523 21.1593 7.47345 21.1593 7.22707C21.1593 6.98069 21.0592 6.73891 20.8847 6.56463Z" fill="#FF3F3A"/>
</g>
<defs>
<clipPath id="clip0_1002_377">
<rect width="48" height="48" fill="white"/>
</clipPath>
</defs>
</svg>
